<mxfile host="app.diagrams.net" modified="2024-01-19T01:52:12.172Z" agent="Mozilla/5.0 (Macintosh; Intel Mac OS X 10.15; rv:121.0) Gecko/20100101 Firefox/121.0" etag="rvdXB34KF60OGaCylWtd" version="22.1.17" type="github">
  <diagram name="Page-1" id="eg_QE5OpCCx4fUhSFfr8">
    <mxGraphModel dx="1306" dy="862" grid="1" gridSize="10" guides="1" tooltips="1" connect="1" arrows="1" fold="1" page="1" pageScale="1" pageWidth="850" pageHeight="1100" math="1" shadow="0">
      <root>
        <mxCell id="0" />
        <mxCell id="1" parent="0" />
        <mxCell id="bg6UwBLU1hDFuDqmmL4w-1" value="" style="endArrow=none;html=1;rounded=0;" edge="1" parent="1">
          <mxGeometry width="50" height="50" relative="1" as="geometry">
            <mxPoint x="30" y="230" as="sourcePoint" />
            <mxPoint x="30" y="130" as="targetPoint" />
          </mxGeometry>
        </mxCell>
        <mxCell id="bg6UwBLU1hDFuDqmmL4w-13" value="" style="group" vertex="1" connectable="0" parent="1">
          <mxGeometry x="40" y="140" width="80" height="80" as="geometry" />
        </mxCell>
        <mxCell id="bg6UwBLU1hDFuDqmmL4w-2" value="" style="endArrow=none;dashed=1;html=1;rounded=0;" edge="1" parent="bg6UwBLU1hDFuDqmmL4w-13">
          <mxGeometry width="50" height="50" relative="1" as="geometry">
            <mxPoint y="40" as="sourcePoint" />
            <mxPoint x="40" y="40" as="targetPoint" />
          </mxGeometry>
        </mxCell>
        <mxCell id="bg6UwBLU1hDFuDqmmL4w-3" value="" style="endArrow=none;html=1;rounded=0;" edge="1" parent="bg6UwBLU1hDFuDqmmL4w-13">
          <mxGeometry width="50" height="50" relative="1" as="geometry">
            <mxPoint x="40" y="40" as="sourcePoint" />
            <mxPoint x="80" y="80" as="targetPoint" />
          </mxGeometry>
        </mxCell>
        <mxCell id="bg6UwBLU1hDFuDqmmL4w-4" value="" style="endArrow=none;html=1;rounded=0;" edge="1" parent="bg6UwBLU1hDFuDqmmL4w-13">
          <mxGeometry width="50" height="50" relative="1" as="geometry">
            <mxPoint x="40" y="40" as="sourcePoint" />
            <mxPoint x="80" as="targetPoint" />
          </mxGeometry>
        </mxCell>
        <mxCell id="bg6UwBLU1hDFuDqmmL4w-21" value="" style="ellipse;whiteSpace=wrap;html=1;aspect=fixed;fillColor=#000000;" vertex="1" parent="bg6UwBLU1hDFuDqmmL4w-13">
          <mxGeometry x="35" y="35" width="10" height="10" as="geometry" />
        </mxCell>
        <mxCell id="bg6UwBLU1hDFuDqmmL4w-19" value="" style="endArrow=none;html=1;rounded=0;movable=1;resizable=1;rotatable=1;deletable=1;editable=1;locked=0;connectable=1;" edge="1" parent="1">
          <mxGeometry width="50" height="50" relative="1" as="geometry">
            <mxPoint x="240" y="230" as="sourcePoint" />
            <mxPoint x="240" y="130" as="targetPoint" />
          </mxGeometry>
        </mxCell>
        <mxCell id="bg6UwBLU1hDFuDqmmL4w-20" value="&lt;div&gt;&lt;svg xmlns:xlink=&quot;http://www.w3.org/1999/xlink&quot; viewBox=&quot;0 -666 500 666&quot; role=&quot;img&quot; height=&quot;1.507ex&quot; width=&quot;1.131ex&quot; xmlns=&quot;http://www.w3.org/2000/svg&quot; style=&quot;vertical-align: 0px;&quot;&gt;&lt;defs&gt;&lt;path d=&quot;M109 429Q82 429 66 447T50 491Q50 562 103 614T235 666Q326 666 387 610T449 465Q449 422 429 383T381 315T301 241Q265 210 201 149L142 93L218 92Q375 92 385 97Q392 99 409 186V189H449V186Q448 183 436 95T421 3V0H50V19V31Q50 38 56 46T86 81Q115 113 136 137Q145 147 170 174T204 211T233 244T261 278T284 308T305 340T320 369T333 401T340 431T343 464Q343 527 309 573T212 619Q179 619 154 602T119 569T109 550Q109 549 114 549Q132 549 151 535T170 489Q170 464 154 447T109 429Z&quot; id=&quot;MJX-2-TEX-N-32&quot;&gt;&lt;/path&gt;&lt;/defs&gt;&lt;g transform=&quot;scale(1,-1)&quot; stroke-width=&quot;0&quot; fill=&quot;currentColor&quot; stroke=&quot;currentColor&quot;&gt;&lt;g data-mml-node=&quot;math&quot;&gt;&lt;g data-mml-node=&quot;mn&quot;&gt;&lt;use xlink:href=&quot;#MJX-2-TEX-N-32&quot; data-c=&quot;32&quot;&gt;&lt;/use&gt;&lt;/g&gt;&lt;/g&gt;&lt;/g&gt;&lt;/svg&gt;&lt;/div&gt;" style="text;html=1;align=center;verticalAlign=middle;resizable=0;points=[];autosize=1;strokeColor=none;fillColor=none;" vertex="1" parent="1">
          <mxGeometry x="240" y="120" width="30" height="30" as="geometry" />
        </mxCell>
        <mxCell id="bg6UwBLU1hDFuDqmmL4w-23" value="$$\mathrm{SM}$$" style="text;html=1;align=center;verticalAlign=middle;resizable=0;points=[];autosize=1;strokeColor=none;fillColor=none;" vertex="1" parent="1">
          <mxGeometry x="20" y="230" width="120" height="30" as="geometry" />
        </mxCell>
        <mxCell id="bg6UwBLU1hDFuDqmmL4w-24" value="$$d=6$$" style="text;html=1;align=center;verticalAlign=middle;resizable=0;points=[];autosize=1;strokeColor=none;fillColor=none;" vertex="1" parent="1">
          <mxGeometry x="155" y="230" width="70" height="30" as="geometry" />
        </mxCell>
        <mxCell id="bg6UwBLU1hDFuDqmmL4w-83" value="" style="group" vertex="1" connectable="0" parent="1">
          <mxGeometry x="310" y="120" width="130" height="110" as="geometry" />
        </mxCell>
        <mxCell id="bg6UwBLU1hDFuDqmmL4w-60" value="" style="endArrow=none;html=1;rounded=0;" edge="1" parent="bg6UwBLU1hDFuDqmmL4w-83">
          <mxGeometry width="50" height="50" relative="1" as="geometry">
            <mxPoint y="110" as="sourcePoint" />
            <mxPoint y="10" as="targetPoint" />
          </mxGeometry>
        </mxCell>
        <mxCell id="bg6UwBLU1hDFuDqmmL4w-61" value="" style="group" vertex="1" connectable="0" parent="bg6UwBLU1hDFuDqmmL4w-83">
          <mxGeometry x="10" y="20" width="80" height="80" as="geometry" />
        </mxCell>
        <mxCell id="bg6UwBLU1hDFuDqmmL4w-62" value="" style="endArrow=none;dashed=1;html=1;rounded=0;" edge="1" parent="bg6UwBLU1hDFuDqmmL4w-61">
          <mxGeometry width="50" height="50" relative="1" as="geometry">
            <mxPoint y="40" as="sourcePoint" />
            <mxPoint x="40" y="40" as="targetPoint" />
          </mxGeometry>
        </mxCell>
        <mxCell id="bg6UwBLU1hDFuDqmmL4w-63" value="" style="endArrow=none;html=1;rounded=0;" edge="1" parent="bg6UwBLU1hDFuDqmmL4w-61">
          <mxGeometry width="50" height="50" relative="1" as="geometry">
            <mxPoint x="40" y="40" as="sourcePoint" />
            <mxPoint x="80" y="80" as="targetPoint" />
          </mxGeometry>
        </mxCell>
        <mxCell id="bg6UwBLU1hDFuDqmmL4w-64" value="" style="endArrow=none;html=1;rounded=0;" edge="1" parent="bg6UwBLU1hDFuDqmmL4w-61">
          <mxGeometry width="50" height="50" relative="1" as="geometry">
            <mxPoint x="40" y="40" as="sourcePoint" />
            <mxPoint x="80" as="targetPoint" />
          </mxGeometry>
        </mxCell>
        <mxCell id="bg6UwBLU1hDFuDqmmL4w-65" value="" style="ellipse;whiteSpace=wrap;html=1;aspect=fixed;fillColor=#000000;" vertex="1" parent="bg6UwBLU1hDFuDqmmL4w-61">
          <mxGeometry x="35" y="35" width="10" height="10" as="geometry" />
        </mxCell>
        <mxCell id="bg6UwBLU1hDFuDqmmL4w-66" value="" style="endArrow=none;html=1;rounded=0;movable=1;resizable=1;rotatable=1;deletable=1;editable=1;locked=0;connectable=1;" edge="1" parent="bg6UwBLU1hDFuDqmmL4w-83">
          <mxGeometry width="50" height="50" relative="1" as="geometry">
            <mxPoint x="100" y="110" as="sourcePoint" />
            <mxPoint x="100" y="10" as="targetPoint" />
          </mxGeometry>
        </mxCell>
        <mxCell id="bg6UwBLU1hDFuDqmmL4w-67" value="&lt;div&gt;&lt;svg xmlns:xlink=&quot;http://www.w3.org/1999/xlink&quot; viewBox=&quot;0 -666 500 666&quot; role=&quot;img&quot; height=&quot;1.507ex&quot; width=&quot;1.131ex&quot; xmlns=&quot;http://www.w3.org/2000/svg&quot; style=&quot;vertical-align: 0px;&quot;&gt;&lt;defs&gt;&lt;path d=&quot;M109 429Q82 429 66 447T50 491Q50 562 103 614T235 666Q326 666 387 610T449 465Q449 422 429 383T381 315T301 241Q265 210 201 149L142 93L218 92Q375 92 385 97Q392 99 409 186V189H449V186Q448 183 436 95T421 3V0H50V19V31Q50 38 56 46T86 81Q115 113 136 137Q145 147 170 174T204 211T233 244T261 278T284 308T305 340T320 369T333 401T340 431T343 464Q343 527 309 573T212 619Q179 619 154 602T119 569T109 550Q109 549 114 549Q132 549 151 535T170 489Q170 464 154 447T109 429Z&quot; id=&quot;MJX-2-TEX-N-32&quot;&gt;&lt;/path&gt;&lt;/defs&gt;&lt;g transform=&quot;scale(1,-1)&quot; stroke-width=&quot;0&quot; fill=&quot;currentColor&quot; stroke=&quot;currentColor&quot;&gt;&lt;g data-mml-node=&quot;math&quot;&gt;&lt;g data-mml-node=&quot;mn&quot;&gt;&lt;use xlink:href=&quot;#MJX-2-TEX-N-32&quot; data-c=&quot;32&quot;&gt;&lt;/use&gt;&lt;/g&gt;&lt;/g&gt;&lt;/g&gt;&lt;/svg&gt;&lt;/div&gt;" style="text;html=1;align=center;verticalAlign=middle;resizable=0;points=[];autosize=1;strokeColor=none;fillColor=none;" vertex="1" parent="bg6UwBLU1hDFuDqmmL4w-83">
          <mxGeometry x="100" width="30" height="30" as="geometry" />
        </mxCell>
        <mxCell id="bg6UwBLU1hDFuDqmmL4w-84" value="&lt;div&gt;$$\times$$&lt;/div&gt;" style="text;html=1;align=center;verticalAlign=middle;resizable=0;points=[];autosize=1;strokeColor=none;fillColor=none;" vertex="1" parent="1">
          <mxGeometry x="420" y="285" width="80" height="30" as="geometry" />
        </mxCell>
        <mxCell id="bg6UwBLU1hDFuDqmmL4w-35" value="&lt;div&gt;$$\mathrm{Re}$$&lt;/div&gt;" style="text;html=1;align=center;verticalAlign=middle;resizable=0;points=[];autosize=1;strokeColor=none;fillColor=none;" vertex="1" parent="1">
          <mxGeometry x="270" y="285" width="120" height="30" as="geometry" />
        </mxCell>
        <mxCell id="bg6UwBLU1hDFuDqmmL4w-28" value="" style="shape=curlyBracket;whiteSpace=wrap;html=1;rounded=1;flipH=1;labelPosition=right;verticalLabelPosition=middle;align=left;verticalAlign=middle;" vertex="1" parent="1">
          <mxGeometry x="570" y="250" width="20" height="100" as="geometry" />
        </mxCell>
        <mxCell id="bg6UwBLU1hDFuDqmmL4w-33" value="" style="shape=curlyBracket;whiteSpace=wrap;html=1;rounded=1;labelPosition=left;verticalLabelPosition=middle;align=right;verticalAlign=middle;" vertex="1" parent="1">
          <mxGeometry x="340" y="250" width="20" height="100" as="geometry" />
        </mxCell>
        <mxCell id="bg6UwBLU1hDFuDqmmL4w-36" value="" style="group" vertex="1" connectable="0" parent="1">
          <mxGeometry x="480" y="260" width="80" height="80" as="geometry" />
        </mxCell>
        <mxCell id="bg6UwBLU1hDFuDqmmL4w-37" value="" style="endArrow=none;dashed=1;html=1;rounded=0;" edge="1" parent="bg6UwBLU1hDFuDqmmL4w-36">
          <mxGeometry width="50" height="50" relative="1" as="geometry">
            <mxPoint y="40" as="sourcePoint" />
            <mxPoint x="40" y="40" as="targetPoint" />
          </mxGeometry>
        </mxCell>
        <mxCell id="bg6UwBLU1hDFuDqmmL4w-51" value="" style="group" vertex="1" connectable="0" parent="bg6UwBLU1hDFuDqmmL4w-36">
          <mxGeometry x="30" width="50" height="80" as="geometry" />
        </mxCell>
        <mxCell id="bg6UwBLU1hDFuDqmmL4w-38" value="" style="endArrow=none;html=1;rounded=0;" edge="1" parent="bg6UwBLU1hDFuDqmmL4w-51">
          <mxGeometry width="50" height="50" relative="1" as="geometry">
            <mxPoint x="10" y="40" as="sourcePoint" />
            <mxPoint x="50" y="80" as="targetPoint" />
          </mxGeometry>
        </mxCell>
        <mxCell id="bg6UwBLU1hDFuDqmmL4w-39" value="" style="endArrow=none;html=1;rounded=0;" edge="1" parent="bg6UwBLU1hDFuDqmmL4w-51">
          <mxGeometry width="50" height="50" relative="1" as="geometry">
            <mxPoint x="10" y="40" as="sourcePoint" />
            <mxPoint x="50" as="targetPoint" />
          </mxGeometry>
        </mxCell>
        <mxCell id="bg6UwBLU1hDFuDqmmL4w-40" value="" style="ellipse;whiteSpace=wrap;html=1;aspect=fixed;fillColor=#E6E6E6;fillStyle=auto;shadow=0;" vertex="1" parent="bg6UwBLU1hDFuDqmmL4w-51">
          <mxGeometry y="30" width="20" height="20" as="geometry" />
        </mxCell>
        <mxCell id="bg6UwBLU1hDFuDqmmL4w-41" value="" style="group" vertex="1" connectable="0" parent="1">
          <mxGeometry x="370" y="260" width="80" height="80" as="geometry" />
        </mxCell>
        <mxCell id="bg6UwBLU1hDFuDqmmL4w-42" value="" style="endArrow=none;dashed=1;html=1;rounded=0;" edge="1" parent="bg6UwBLU1hDFuDqmmL4w-41">
          <mxGeometry width="50" height="50" relative="1" as="geometry">
            <mxPoint y="40" as="sourcePoint" />
            <mxPoint x="40" y="40" as="targetPoint" />
          </mxGeometry>
        </mxCell>
        <mxCell id="bg6UwBLU1hDFuDqmmL4w-55" value="" style="group" vertex="1" connectable="0" parent="bg6UwBLU1hDFuDqmmL4w-41">
          <mxGeometry x="35" width="45" height="80" as="geometry" />
        </mxCell>
        <mxCell id="bg6UwBLU1hDFuDqmmL4w-43" value="" style="endArrow=none;html=1;rounded=0;" edge="1" parent="bg6UwBLU1hDFuDqmmL4w-55">
          <mxGeometry width="50" height="50" relative="1" as="geometry">
            <mxPoint x="5" y="40" as="sourcePoint" />
            <mxPoint x="45" y="80" as="targetPoint" />
          </mxGeometry>
        </mxCell>
        <mxCell id="bg6UwBLU1hDFuDqmmL4w-44" value="" style="endArrow=none;html=1;rounded=0;" edge="1" parent="bg6UwBLU1hDFuDqmmL4w-55">
          <mxGeometry width="50" height="50" relative="1" as="geometry">
            <mxPoint x="5" y="40" as="sourcePoint" />
            <mxPoint x="45" as="targetPoint" />
          </mxGeometry>
        </mxCell>
        <mxCell id="bg6UwBLU1hDFuDqmmL4w-45" value="" style="ellipse;whiteSpace=wrap;html=1;aspect=fixed;fillColor=#000000;" vertex="1" parent="bg6UwBLU1hDFuDqmmL4w-55">
          <mxGeometry y="35" width="10" height="10" as="geometry" />
        </mxCell>
        <mxCell id="bg6UwBLU1hDFuDqmmL4w-85" value="$$+$$" style="text;html=1;align=center;verticalAlign=middle;resizable=0;points=[];autosize=1;strokeColor=none;fillColor=none;" vertex="1" parent="1">
          <mxGeometry x="105" y="165" width="60" height="30" as="geometry" />
        </mxCell>
        <mxCell id="bg6UwBLU1hDFuDqmmL4w-12" value="" style="group" vertex="1" connectable="0" parent="1">
          <mxGeometry x="330" y="380" width="80" height="80" as="geometry" />
        </mxCell>
        <mxCell id="bg6UwBLU1hDFuDqmmL4w-9" value="" style="endArrow=none;dashed=1;html=1;rounded=0;" edge="1" parent="bg6UwBLU1hDFuDqmmL4w-12">
          <mxGeometry width="50" height="50" relative="1" as="geometry">
            <mxPoint y="40" as="sourcePoint" />
            <mxPoint x="40" y="40" as="targetPoint" />
          </mxGeometry>
        </mxCell>
        <mxCell id="bg6UwBLU1hDFuDqmmL4w-10" value="" style="endArrow=none;html=1;rounded=0;" edge="1" parent="bg6UwBLU1hDFuDqmmL4w-12">
          <mxGeometry width="50" height="50" relative="1" as="geometry">
            <mxPoint x="40" y="40" as="sourcePoint" />
            <mxPoint x="80" y="80" as="targetPoint" />
          </mxGeometry>
        </mxCell>
        <mxCell id="bg6UwBLU1hDFuDqmmL4w-11" value="" style="endArrow=none;html=1;rounded=0;" edge="1" parent="bg6UwBLU1hDFuDqmmL4w-12">
          <mxGeometry width="50" height="50" relative="1" as="geometry">
            <mxPoint x="40" y="40" as="sourcePoint" />
            <mxPoint x="80" as="targetPoint" />
          </mxGeometry>
        </mxCell>
        <mxCell id="bg6UwBLU1hDFuDqmmL4w-17" value="" style="ellipse;whiteSpace=wrap;html=1;aspect=fixed;fillColor=#E6E6E6;fillStyle=auto;shadow=0;" vertex="1" parent="bg6UwBLU1hDFuDqmmL4w-12">
          <mxGeometry x="30" y="30" width="20" height="20" as="geometry" />
        </mxCell>
        <mxCell id="bg6UwBLU1hDFuDqmmL4w-74" value="" style="endArrow=none;html=1;rounded=0;" edge="1" parent="1">
          <mxGeometry width="50" height="50" relative="1" as="geometry">
            <mxPoint x="320" y="470" as="sourcePoint" />
            <mxPoint x="320" y="370" as="targetPoint" />
          </mxGeometry>
        </mxCell>
        <mxCell id="bg6UwBLU1hDFuDqmmL4w-80" value="" style="endArrow=none;html=1;rounded=0;movable=1;resizable=1;rotatable=1;deletable=1;editable=1;locked=0;connectable=1;" edge="1" parent="1">
          <mxGeometry width="50" height="50" relative="1" as="geometry">
            <mxPoint x="420" y="470" as="sourcePoint" />
            <mxPoint x="420" y="370" as="targetPoint" />
          </mxGeometry>
        </mxCell>
        <mxCell id="bg6UwBLU1hDFuDqmmL4w-81" value="&lt;div&gt;&lt;svg xmlns:xlink=&quot;http://www.w3.org/1999/xlink&quot; viewBox=&quot;0 -666 500 666&quot; role=&quot;img&quot; height=&quot;1.507ex&quot; width=&quot;1.131ex&quot; xmlns=&quot;http://www.w3.org/2000/svg&quot; style=&quot;vertical-align: 0px;&quot;&gt;&lt;defs&gt;&lt;path d=&quot;M109 429Q82 429 66 447T50 491Q50 562 103 614T235 666Q326 666 387 610T449 465Q449 422 429 383T381 315T301 241Q265 210 201 149L142 93L218 92Q375 92 385 97Q392 99 409 186V189H449V186Q448 183 436 95T421 3V0H50V19V31Q50 38 56 46T86 81Q115 113 136 137Q145 147 170 174T204 211T233 244T261 278T284 308T305 340T320 369T333 401T340 431T343 464Q343 527 309 573T212 619Q179 619 154 602T119 569T109 550Q109 549 114 549Q132 549 151 535T170 489Q170 464 154 447T109 429Z&quot; id=&quot;MJX-2-TEX-N-32&quot;&gt;&lt;/path&gt;&lt;/defs&gt;&lt;g transform=&quot;scale(1,-1)&quot; stroke-width=&quot;0&quot; fill=&quot;currentColor&quot; stroke=&quot;currentColor&quot;&gt;&lt;g data-mml-node=&quot;math&quot;&gt;&lt;g data-mml-node=&quot;mn&quot;&gt;&lt;use xlink:href=&quot;#MJX-2-TEX-N-32&quot; data-c=&quot;32&quot;&gt;&lt;/use&gt;&lt;/g&gt;&lt;/g&gt;&lt;/g&gt;&lt;/svg&gt;&lt;/div&gt;" style="text;html=1;align=center;verticalAlign=middle;resizable=0;points=[];autosize=1;strokeColor=none;fillColor=none;" vertex="1" parent="1">
          <mxGeometry x="420" y="360" width="30" height="30" as="geometry" />
        </mxCell>
        <mxCell id="bg6UwBLU1hDFuDqmmL4w-86" value="" style="group" vertex="1" connectable="0" parent="1">
          <mxGeometry x="150" y="140" width="80" height="80" as="geometry" />
        </mxCell>
        <mxCell id="bg6UwBLU1hDFuDqmmL4w-87" value="" style="endArrow=none;dashed=1;html=1;rounded=0;" edge="1" parent="bg6UwBLU1hDFuDqmmL4w-86">
          <mxGeometry width="50" height="50" relative="1" as="geometry">
            <mxPoint y="40" as="sourcePoint" />
            <mxPoint x="40" y="40" as="targetPoint" />
          </mxGeometry>
        </mxCell>
        <mxCell id="bg6UwBLU1hDFuDqmmL4w-88" value="" style="endArrow=none;html=1;rounded=0;" edge="1" parent="bg6UwBLU1hDFuDqmmL4w-86">
          <mxGeometry width="50" height="50" relative="1" as="geometry">
            <mxPoint x="40" y="40" as="sourcePoint" />
            <mxPoint x="80" y="80" as="targetPoint" />
          </mxGeometry>
        </mxCell>
        <mxCell id="bg6UwBLU1hDFuDqmmL4w-89" value="" style="endArrow=none;html=1;rounded=0;" edge="1" parent="bg6UwBLU1hDFuDqmmL4w-86">
          <mxGeometry width="50" height="50" relative="1" as="geometry">
            <mxPoint x="40" y="40" as="sourcePoint" />
            <mxPoint x="80" as="targetPoint" />
          </mxGeometry>
        </mxCell>
        <mxCell id="bg6UwBLU1hDFuDqmmL4w-90" value="" style="ellipse;whiteSpace=wrap;html=1;aspect=fixed;fillColor=#E6E6E6;fillStyle=auto;shadow=0;" vertex="1" parent="bg6UwBLU1hDFuDqmmL4w-86">
          <mxGeometry x="30" y="30" width="20" height="20" as="geometry" />
        </mxCell>
        <mxCell id="bg6UwBLU1hDFuDqmmL4w-91" value="&lt;div&gt;$$=$$&lt;/div&gt;" style="text;html=1;align=center;verticalAlign=middle;resizable=0;points=[];autosize=1;strokeColor=none;fillColor=none;" vertex="1" parent="1">
          <mxGeometry x="250" y="165" width="60" height="30" as="geometry" />
        </mxCell>
        <mxCell id="bg6UwBLU1hDFuDqmmL4w-92" value="$$+$$" style="text;html=1;align=center;verticalAlign=middle;resizable=0;points=[];autosize=1;strokeColor=none;fillColor=none;" vertex="1" parent="1">
          <mxGeometry x="280" y="405" width="60" height="30" as="geometry" />
        </mxCell>
        <mxCell id="bg6UwBLU1hDFuDqmmL4w-93" value="$$+$$" style="text;html=1;align=center;verticalAlign=middle;resizable=0;points=[];autosize=1;strokeColor=none;fillColor=none;" vertex="1" parent="1">
          <mxGeometry x="280" y="285" width="60" height="30" as="geometry" />
        </mxCell>
      </root>
    </mxGraphModel>
  </diagram>
</mxfile>
